<!-- Generated by IcoMoon.io -->
<svg version="1.1" xmlns="http://www.w3.org/2000/svg" width="1024" height="1024" viewBox="0 0 1024 1024">
<g id="icomoon-ignore">
</g>
<path d="M949.997 330.441c-8.090-7.332-17.877-12.038-28.262-13.594-10.387-1.555-20.962 0.107-30.539 4.794l-201.999 98.56c-0.89 0.535-1.869 0.868-2.878 0.979-1.009 0.113-2.029 0-2.997-0.326-0.969-0.329-1.869-0.866-2.645-1.583s-1.417-1.596-1.879-2.59l-118.001-233.199c-4.785-9.64-11.84-17.684-20.427-23.289s-18.387-8.562-28.373-8.562c-9.984 0-19.785 2.957-28.371 8.562s-15.644 13.649-20.429 23.289l-117.999 233.199c-0.463 0.994-1.103 1.873-1.879 2.59s-1.677 1.254-2.645 1.583c-0.971 0.326-1.988 0.439-2.997 0.326-1.009-0.111-1.988-0.444-2.878-0.979l-202-98.56c-9.543-4.759-20.109-6.479-30.496-4.964-10.388 1.517-20.18 6.208-28.264 13.542s-14.135 17.015-17.466 27.945c-3.33 10.929-3.806 22.667-1.374 33.877l102 476.521c1.728 8.053 4.922 15.637 9.391 22.293 4.469 6.654 10.119 12.243 16.609 16.427 8.549 5.756 18.377 8.8 28.4 8.8 5.129-0.051 10.234-0.791 15.2-2.199 186.479-56.749 383.447-56.9 569.999-0.439 7.277 2.31 14.906 2.972 22.421 1.948 7.516-1.026 14.767-3.716 21.31-7.913s12.245-9.807 16.762-16.497c4.514-6.688 7.748-14.315 9.508-22.419l101.6-476.521c2.539-11.13 2.157-22.825-1.101-33.726-3.255-10.903-9.254-20.567-17.299-27.874zM921.997 379.721l-102.001 476.521c-0.546 2.315-1.822 4.341-3.599 5.719-1.986 1.065-4.237 1.374-6.4 0.881-195.014-59.258-400.986-59.258-596 0-1.052 0.329-2.153 0.416-3.236 0.256-1.083-0.158-2.125-0.559-3.062-1.178-0.937-0.617-1.749-1.44-2.386-2.417s-1.085-2.086-1.316-3.262l-102-476.521c-0.233-1.314-0.202-2.671 0.089-3.972s0.836-2.517 1.597-3.563c0.761-1.047 1.72-1.899 2.81-2.496 1.090-0.599 2.286-0.928 3.503-0.969l3.2 0.881 202.4 98.999c12.764 6.323 27.226 7.117 40.499 2.223s24.38-15.117 31.1-28.623l118.001-233.2c0.629-1.39 1.6-2.559 2.801-3.376s2.586-1.25 3.998-1.25c1.412 0 2.797 0.433 3.998 1.25s2.172 1.987 2.803 3.376l117.999 233.2c6.722 13.506 17.828 23.729 31.102 28.623 13.271 4.894 27.735 4.1 40.499-2.223l202.4-98.999c1.372-0.67 2.886-0.9 4.371-0.668 1.487 0.235 2.882 0.924 4.028 1.986 1.169 1.033 2.052 2.404 2.547 3.959s0.582 3.234 0.254 4.841zM663.996 714.121c-0.681 6.498-3.497 12.497-7.915 16.873-4.42 4.375-10.14 6.825-16.085 6.889h-2.4c-83.522-9.239-167.676-9.239-251.2 0-6.308 0.74-12.627-1.297-17.574-5.666-4.947-4.371-8.119-10.718-8.826-17.653-0.561-6.987 1.385-13.935 5.421-19.362s9.845-8.9 16.179-9.679c86.69-10.121 174.11-10.121 260.8 0 6.261 0.779 12.006 4.19 16.032 9.519 4.026 5.331 6.022 12.169 5.568 19.081z"></path>
</svg>
