<!-- Generated by IcoMoon.io -->
<svg version="1.1" xmlns="http://www.w3.org/2000/svg" width="1024" height="1024" viewBox="0 0 1024 1024">
<g id="icomoon-ignore">
</g>
<path d="M767.574 68.099c-43.040-4.566-86.298-6.788-129.578-6.656-143.488 0-232.662 91.392-232.662 238.507v99.884h-120.532c-5.658 0-11.084 2.246-15.085 6.246s-6.248 9.427-6.248 15.085v164.269c0 5.658 2.248 11.082 6.248 15.085 4.001 4 9.427 6.246 15.085 6.246h120.532v329.389c0 5.658 2.25 11.082 6.25 15.085 4 4 9.427 6.246 15.085 6.246h169.728c5.658 0 11.085-2.246 15.085-6.246 4-4.003 6.25-9.427 6.25-15.085v-329.389h120.147c5.181 0.003 10.182-1.878 14.077-5.293s6.413-8.131 7.088-13.267l21.203-164.266c0.397-3.011 0.144-6.070-0.739-8.976s-2.378-5.59-4.381-7.872c-2.003-2.282-4.47-4.109-7.235-5.363-2.768-1.251-5.77-1.898-8.806-1.894h-141.354v-83.585c0-41.387 8.32-58.667 60.074-58.667h86.998c5.658 0 11.082-2.248 15.085-6.248 4-4.001 6.246-9.427 6.246-15.085v-146.987c0.003-5.18-1.878-10.183-5.293-14.077s-8.131-6.412-13.267-7.086zM743.469 214.872l-65.706 0.043c-92.032 0-102.701 57.856-102.701 101.333v104.961c0 5.648 2.243 11.069 6.234 15.069 3.994 4 9.408 6.253 15.059 6.262h138.496l-15.744 121.6h-122.71c-5.658 0-11.085 2.25-15.085 6.25s-6.25 9.427-6.25 15.085v329.302h-127.059v-329.302c0-5.658-2.25-11.085-6.25-15.085s-9.427-6.25-15.085-6.25h-120.491v-121.6h120.491c5.658 0 11.085-2.246 15.085-6.246 4-4.003 6.25-9.427 6.25-15.085v-121.26c0-122.624 71.040-195.84 189.994-195.84 43.050 0 81.92 2.347 105.472 4.395v106.368z"></path>
</svg>
