<svg xmlns="http://www.w3.org/2000/svg" width="1024" height="1024"><path d="M767.574 68.099a1193.79 1193.79 0 0 0-129.578-6.656c-143.488 0-232.662 91.392-232.662 238.507v99.884H284.802a21.33 21.33 0 0 0-21.333 21.331v164.269a21.34 21.34 0 0 0 6.248 15.085c4.001 4 9.427 6.246 15.085 6.246h120.532v329.389a21.333 21.333 0 0 0 21.335 21.331h169.728a21.333 21.333 0 0 0 21.335-21.331V606.765h120.147a21.33 21.33 0 0 0 21.165-18.56l21.203-164.266c.397-3.011.144-6.07-.739-8.976a21.342 21.342 0 0 0-11.616-13.235 21.315 21.315 0 0 0-8.806-1.894H617.732v-83.585c0-41.387 8.32-58.667 60.074-58.667h86.998a21.34 21.34 0 0 0 15.085-6.248c4-4.001 6.246-9.427 6.246-15.085V89.262a21.33 21.33 0 0 0-18.56-21.163zm-24.105 146.773-65.706.043c-92.032 0-102.701 57.856-102.701 101.333v104.961a21.34 21.34 0 0 0 6.234 15.069c3.994 4 9.408 6.253 15.059 6.262h138.496l-15.744 121.6h-122.71a21.337 21.337 0 0 0-21.335 21.335v329.302H448.003V585.475a21.337 21.337 0 0 0-21.335-21.335H306.177v-121.6h120.491a21.333 21.333 0 0 0 21.335-21.331v-121.26c0-122.624 71.04-195.84 189.994-195.84 43.05 0 81.92 2.347 105.472 4.395v106.368z"/></svg>