<!-- Generated by IcoMoon.io -->
<svg version="1.1" xmlns="http://www.w3.org/2000/svg" width="1024" height="1024" viewBox="0 0 1024 1024">
<g id="icomoon-ignore">
</g>
<path d="M513.956 44.788c-33.6 0-64.981 15.3-91.729 40.354-26.743 25.060-49.641 59.96-68.725 102.234-4 8.856-7.821 18.060-11.473 27.555-9.847-1.564-19.738-2.848-29.66-3.853-11.539-1.15-22.799-1.864-33.739-2.12-32.841-0.78-62.854 2.55-89.161 10.523-35.072 10.635-64.012 30.167-80.812 59.262-16.8 29.099-19.24 63.927-10.914 99.618 8.33 35.691 27.104 72.969 54.174 110.637 5.68 7.9 11.748 15.823 18.152 23.746-6.265 7.733-12.31 15.644-18.128 23.721-27.072 37.666-45.846 74.944-54.174 110.635-8.328 35.693-5.886 70.522 10.914 99.614 16.8 29.101 45.74 48.631 80.812 59.26 35.074 10.637 76.746 13.015 122.899 8.405 9.677-0.969 19.561-2.259 29.617-3.844 3.569 9.308 7.401 18.513 11.492 27.603 19.085 42.281 41.98 77.175 68.725 102.234 26.746 25.056 58.131 40.358 91.729 40.358 33.596 0 64.979-15.302 91.725-40.358 26.743-25.060 49.641-59.955 68.725-102.234 4.092-9.088 7.923-18.293 11.492-27.599 10.044 1.579 19.921 2.874 29.589 3.84 46.155 4.608 87.829 2.229 122.899-8.405 35.076-10.63 64.017-30.163 80.817-59.26 16.8-29.099 19.238-63.923 10.914-99.614-8.331-35.689-27.106-72.966-54.176-110.635-5.82-8.075-11.866-15.985-18.129-23.721 6.274-7.742 12.329-15.659 18.153-23.744 27.070-37.668 45.843-74.946 54.172-110.637s5.886-70.519-10.914-99.62c-16.8-29.092-45.741-48.625-80.813-59.26-26.304-7.973-56.32-11.303-89.156-10.525-10.946 0.256-22.208 0.97-33.747 2.12-9.679 0.968-19.573 2.266-29.634 3.851-3.565-9.29-7.392-18.478-11.473-27.553-19.087-42.28-41.98-77.18-68.727-102.236s-58.129-40.354-91.725-40.354l0.009 0.002zM513.956 82.163c22.409 0 44.384 9.846 66.172 30.26 21.786 20.41 42.594 51.306 60.213 90.334 2.865 6.368 5.589 12.798 8.173 19.285-42.835 9.525-88.201 24.137-134.571 43.661-46.359-19.52-91.721-34.127-134.545-43.652 2.643-6.62 5.359-13.072 8.171-19.296 17.621-39.030 38.428-69.926 60.215-90.34 21.79-20.41 43.761-30.256 66.174-30.256l-0.002 0.004zM266.775 246.276c3.607-0.036 7.275-0.013 10.995 0.073 9.92 0.22 20.235 0.86 30.886 1.926 6.812 0.678 13.775 1.549 20.849 2.575-13.173 41.854-23.2 88.444-29.485 138.359-40.096 30.4-75.437 62.389-105.1 94.726-4.341-5.491-8.56-11.076-12.654-16.755-24.99-34.773-41.34-68.241-48.126-97.316-6.784-29.075-4.32-53.026 6.884-72.433 11.204-19.409 30.72-33.515 59.288-42.176 18.75-5.687 41.199-8.751 66.46-8.981l0.002 0.002zM761.111 246.276c25.261 0.23 47.71 3.294 66.46 8.979 28.572 8.661 48.081 22.767 59.285 42.176 11.204 19.407 13.67 43.36 6.886 72.433-6.78 29.073-23.14 62.543-48.126 97.316-4.092 5.679-8.311 11.266-12.651 16.759-29.66-32.333-64.99-64.314-105.073-94.709-6.281-49.924-16.32-96.521-29.491-138.381 7.066-1.026 14.020-1.899 20.826-2.575 10.268-1.041 20.572-1.683 30.889-1.929 3.663-0.083 7.33-0.109 10.995-0.075v0.004zM661.271 257.557c9.939 30.876 18.17 64.943 24.311 101.399-19.842-13.404-40.151-26.101-60.892-38.069-20.723-11.972-41.862-23.209-63.379-33.687 34.639-12.909 68.254-22.814 99.959-29.641v-0.002zM366.637 257.562c31.701 6.829 65.31 16.734 99.94 29.641-21.517 10.479-42.656 21.715-63.379 33.685-20.73 11.962-41.033 24.653-60.868 38.048 6.14-36.448 14.368-70.505 24.307-101.374zM513.943 306.483c30.415 13.414 61.286 29.007 92.060 46.775 30.786 17.775 59.74 36.719 86.571 56.361 3.593 33.054 5.523 67.595 5.523 103.14 0 35.522-1.926 70.050-5.515 103.091-26.831 19.635-55.78 38.575-86.558 56.348-30.78 17.771-61.66 33.367-92.079 46.784-30.423-13.417-61.303-29.013-92.083-46.784-30.771-17.766-59.71-36.7-86.528-56.329-3.59-33.045-5.521-67.58-5.521-103.113 0-35.55 1.931-70.097 5.523-103.155 26.827-19.633 55.772-38.575 86.547-56.343 30.775-17.766 61.647-33.361 92.060-46.771v-0.004zM516.471 362.714l-107.004 66.035 107.004 66.039 107.004-66.039-107.004-66.035zM294.95 440.983c-1.681 23.885-2.519 47.823-2.513 71.77 0 24.395 0.86 48.343 2.515 71.727-28.499-23.539-53.886-47.699-75.652-71.746 21.766-24.043 47.151-48.207 75.65-71.75zM732.962 441.003c28.484 23.539 53.865 47.693 75.625 71.733-21.76 24.041-47.14 48.194-75.625 71.729 1.679-23.868 2.517-47.785 2.511-71.71 0-24.41-0.86-48.361-2.513-71.753h0.002zM385.361 457.79v130.396l112.38 69.355v-130.389l-112.38-69.361zM647.477 457.858l-112.354 69.34v130.33l112.356-69.342v-130.327h-0.002zM194.918 541.538c29.667 32.341 65.004 64.32 105.095 94.72 6.281 49.909 16.314 96.497 29.481 138.351-7.059 1.020-14.012 1.892-20.813 2.573-42.607 4.254-79.774 1.681-108.343-6.98-28.572-8.659-48.080-22.771-59.286-42.18-11.204-19.409-13.67-43.36-6.886-72.433s23.136-62.543 48.126-97.316c4.085-5.67 8.293-11.249 12.626-16.734zM832.966 541.545c4.414 5.6 8.64 11.181 12.625 16.727 24.988 34.771 41.34 68.241 48.124 97.314 6.784 29.075 4.324 53.024-6.88 72.435-11.209 19.407-30.72 33.519-59.292 42.178-28.567 8.661-65.728 11.234-108.337 6.98-6.946-0.704-13.879-1.562-20.789-2.569 13.171-41.865 23.2-88.461 29.481-138.381 40.079-30.391 75.411-62.364 105.069-94.69v0.004zM685.591 666.511c-6.14 36.452-14.368 70.519-24.307 101.393-31.71-6.827-65.327-16.736-99.968-29.643 21.521-10.485 42.669-21.724 63.398-33.696 20.736-11.966 41.041-24.659 60.881-38.054h-0.004zM342.321 666.53c19.829 13.391 40.124 26.076 60.849 38.035 20.73 11.972 41.877 23.211 63.398 33.696-34.63 12.905-68.239 22.814-99.945 29.638-9.941-30.867-18.163-64.928-24.303-101.37zM515.061 668.23l1.361 0.841 1.353-0.841h-2.714zM513.941 759.765c46.381 19.52 91.748 34.129 134.588 43.65-2.586 6.507-5.316 12.956-8.188 19.341-17.619 39.025-38.428 69.92-60.215 90.334-21.786 20.412-43.761 30.259-66.17 30.259-22.413 0-44.386-9.847-66.174-30.259-21.786-20.412-42.592-51.309-60.213-90.336-2.871-6.385-5.602-12.834-8.19-19.341 42.833-9.523 88.196-24.13 134.566-43.648h-0.004z"></path>
</svg>
