<svg xmlns="http://www.w3.org/2000/svg" width="1024" height="1024"><path d="M512 328a184.002 184.002 0 0 0-169.994 113.587c-13.926 33.619-17.571 70.618-10.47 106.31s24.624 68.477 50.355 94.211a183.993 183.993 0 0 0 94.211 50.355 184.01 184.01 0 0 0 188.889-78.24 184.002 184.002 0 0 0-152.992-286.224zm0 320a135.998 135.998 0 0 1-75.558-22.922c-22.365-14.941-39.795-36.182-50.09-61.034s-12.986-52.195-7.738-78.576a135.99 135.99 0 0 1 106.854-106.854 135.991 135.991 0 0 1 139.61 57.828A136 136 0 0 1 648 512a136.407 136.407 0 0 1-39.949 96.051A136.407 136.407 0 0 1 512 648zm176-528H336a216 216 0 0 0-216 216v352a216.005 216.005 0 0 0 63.265 152.736A216.007 216.007 0 0 0 336 904h352a216.012 216.012 0 0 0 152.736-63.264A216.012 216.012 0 0 0 904 688V336a216.007 216.007 0 0 0-63.264-152.735A216.005 216.005 0 0 0 688 120zm168 568a167.999 167.999 0 0 1-168 168H336a167.997 167.997 0 0 1-168-168V336a168.001 168.001 0 0 1 168-168h352a168.003 168.003 0 0 1 168 168v352zm-96-384a40.002 40.002 0 0 1-68.285 28.285 39.992 39.992 0 0 1-8.669-43.592 40.01 40.01 0 0 1 14.73-17.952A40 40 0 0 1 760 304z"/></svg>