<!-- Generated by IcoMoon.io -->
<svg version="1.1" xmlns="http://www.w3.org/2000/svg" width="1003" height="1024" viewBox="0 0 1003 1024">
<g id="icomoon-ignore">
</g>
<path d="M273.928 388.134h-277.782c-8.534 0-15.432 6.618-15.432 14.806v88.837c0 8.188 6.898 14.806 15.432 14.806h15.432v340.543c0 8.188 6.898 14.806 15.432 14.806h216.053c8.535 0 15.433-6.618 15.433-14.806v-340.543h15.431c8.535 0 15.433-6.618 15.433-14.806v-88.837c0-8.188-6.898-14.806-15.433-14.806zM104.173 669.451v-29.612h92.594v-29.612h-92.594v-29.612h123.458v192.481h-123.458v-74.031h30.865v-29.612h-30.865zM227.631 551.002h-138.89c-8.534 0-15.432 6.618-15.432 14.806v222.093c0 8.188 6.898 14.806 15.432 14.806h138.89v29.612h-185.187v-325.736h185.187v44.419zM258.497 476.971h-246.918v-59.225h246.918v59.225z"></path>
<path d="M478.409 390.909v-108.247c0-8.43-6.898-15.245-15.433-15.245h-15.431v-76.219h30.864v-30.488h-169.756v30.488h108.028v76.219h-15.433c-8.535 0-15.433 6.815-15.433 15.245v108.247c-35.169 7.089-61.728 37.865-61.728 74.681v381.099c0 8.43 6.898 15.243 15.433 15.243h185.187c8.535 0 15.433-6.813 15.433-15.243v-381.099c0-36.799-26.559-67.592-61.73-74.681zM416.68 297.905h30.864v91.464h-30.864v-91.464zM401.247 419.857h61.728c25.527 0 46.297 20.52 46.297 45.733v15.243h-154.323v-15.243c0-25.213 20.773-45.733 46.297-45.733zM509.273 770.47h-154.323v-30.488h61.73v-30.488h-61.73v-198.173h154.323v259.149zM354.95 831.444v-30.488h154.323v30.488h-154.323z"></path>
<path d="M872.899 369.183h-260.422c-8 0-14.468 6.675-14.468 14.932v462.89c0 8.257 6.468 14.932 14.468 14.932h260.422c8 0 14.468-6.675 14.468-14.932v-462.89c0-8.257-6.468-14.932-14.468-14.932zM858.432 832.071h-231.487v-433.025h231.487v433.025z"></path>
<path d="M212.204 672.413h-38.582v18.952h38.582v-18.952z"></path>
<path d="M482.264 710.315h-38.58v37.905h38.58v-37.905z"></path>
<path d="M434.036 672.415c37.236 0 67.517-29.75 67.517-66.332s-30.281-66.332-67.517-66.332c-37.234 0-67.515 29.75-67.515 66.332s30.281 66.332 67.515 66.332zM434.036 572.915c18.618 0 33.759 14.875 33.759 33.167 0 18.29-15.141 33.165-33.759 33.165-18.616 0-33.756-14.875-33.756-33.165 0-18.292 15.141-33.167 33.756-33.167z"></path>
<path d="M706.514 520.796h72.34c27.922 0 50.638-21.253 50.638-47.38s-22.716-47.38-50.638-47.38h-72.34c-27.922 0-50.636 21.253-50.636 47.38s22.714 47.38 50.636 47.38zM800.555 473.416c0 11.195-9.736 20.304-21.7 20.304h-21.703v-40.611h21.703c11.964 0 21.7 9.112 21.7 20.307zM706.514 453.11h21.703v40.611h-21.703c-11.964 0-21.7-9.109-21.7-20.304s9.736-20.307 21.7-20.307z"></path>
<path d="M706.514 672.411h72.34c27.922 0 50.638-25.504 50.638-56.855 0-31.353-22.716-56.857-50.638-56.857h-72.34c-27.922 0-50.636 25.504-50.636 56.857 0 31.351 22.714 56.855 50.636 56.855zM800.555 615.556c0 13.433-9.736 24.367-21.7 24.367h-21.703v-48.734h21.703c11.964 0 21.7 10.932 21.7 24.367zM706.514 591.189h21.703v48.734h-21.703c-11.964 0-21.7-10.934-21.7-24.367 0-13.435 9.736-24.367 21.7-24.367z"></path>
<path d="M706.514 805.079h72.34c27.922 0 50.638-25.504 50.638-56.855 0-31.353-22.716-56.857-50.638-56.857h-72.34c-27.922 0-50.636 25.504-50.636 56.857 0 31.351 22.714 56.855 50.636 56.855zM800.555 748.224c0 13.433-9.736 24.365-21.7 24.365h-21.703v-48.732h21.703c11.964 0 21.7 10.932 21.7 24.367zM706.514 723.857h21.703v48.732h-21.703c-11.964 0-21.7-10.932-21.7-24.365 0-13.435 9.736-24.367 21.7-24.367z"></path>
</svg>
